<svg xmlns="http://www.w3.org/2000/svg" viewBox="0 0 1000 1000"><path fill="#fff" d="M500 10c28.5 0 51.6 23.1 51.6 51.6 0 21.2-19.2 39.4-37.5 47.3l13.8 133.2c98.7 1.2 178.4 81.5 178.4 180.5V500h-25.8c57 0 103.2 46.2 103.2 103.2v51.6c0 57-46.2 103.2-103.1 103.2h25.8v196c-47.1 21.8-122 36-206.4 36s-159.3-14.2-206.3-36.1v-196h25.8c-57 0-103.1-46.2-103.1-103.2v-51.6c0-57 46.2-103.2 103.2-103.2h-25.8v-77.4c0-99 79.7-179.4 178.4-180.5L486 108.8c-18.3-7.9-37.5-26.1-37.5-47.3-.1-28.4 23-51.5 51.5-51.5zm180.5 515.8h-361c-42.7 0-77.4 34.6-77.4 77.4v51.6c0 42.7 34.6 77.4 77.4 77.4h361.1c42.7 0 77.4-34.6 77.4-77.4v-51.6c-.1-42.8-34.7-77.4-77.5-77.4zM500 790.1l-25.8-6.1v51.2h51.6V784l-25.8 6.1zm180.5 45.2c0-51.6-19.7-43.3-51.6-51.7v51.7h51.6zm-128.9-50v50h51.6v-50.7l-51.6.7zm-154.8-.8v50.7h51.6v-50l-51.6-.7zm-77.3 50.8h51.6v-51.7c-32 8.4-51.6.1-51.6 51.7zM500 912.6l25.8-.6v-51h-51.6v51l25.8.6zm171.4-51.5h-42.5v30.8c20.5-8.8 34.4-19.6 42.5-30.8zm-119.8 0v49.1c19.6-2 36.8-5.3 51.6-9.4v-39.7h-51.6zm-154.8 0v38.7h-3.6c15.6 4.6 33.9 8.2 55.1 10.4v-49.1h-51.5zm-68.2 0c8.2 11.3 22.1 22 42.5 30.8v-30.8h-42.5zm42.5-257.9h51.6v51.6h-51.6v-51.6zm206.3 0H629v51.6h-51.6v-51.6zm-257.9-51.6h30.8c-26.2 15.8-43.7 44.5-43.7 77.4 0 32.8 17.5 61.6 43.7 77.4h-30.9c-28.5 0-51.6-23.1-51.6-51.6v-51.6c.1-28.5 23.2-51.6 51.7-51.6zm361 0c28.5 0 51.6 23.1 51.6 51.6v51.6c0 28.5-23.1 51.6-51.6 51.6h-30.8c26.2-15.8 43.7-44.5 43.7-77.4 0-32.8-17.5-61.6-43.7-77.4h30.8zM443.4 706.3c26.2-15.8 43.7-44.5 43.7-77.4 0-32.8-17.5-61.6-43.7-77.4h113.3C530.5 567.3 513 596 513 628.9c0 32.8 17.5 61.6 43.7 77.4H443.4z"/></svg>